<?xml version="1.0" encoding="UTF-8"?>
<svg width="14px" height="14px" viewBox="0 0 14 14" version="1.1" xmlns="http://www.w3.org/2000/svg" xmlns:xlink="http://www.w3.org/1999/xlink">
    <!-- Generator: Sketch 52.6 (67491) - http://www.bohemiancoding.com/sketch -->
    <title>noun_filter fill_582850</title>
    <desc>Created with Sketch.</desc>
    <g id="Page-1" stroke="none" stroke-width="1" fill="none" fill-rule="evenodd">
        <g id="Desktop-HD---Filter-2" transform="translate(-1296.000000, -46.000000)" fill="#000000">
            <g id="Menu" transform="translate(40.000000, 40.000000)">
                <g id="noun_filter-fill_582850" transform="translate(1256.000000, 6.000000)">
                    <g id="Group">
                        <path d="M13.1846154,6.33111111 L11.8461538,6.33111111 C11.5692308,5.56888889 10.8615385,5.02444444 10.0153846,5.02444444 C9.16923077,5.02444444 8.46153846,5.56888889 8.18461538,6.33111111 L0.646153846,6.33111111 C0.292307692,6.33111111 0,6.62666667 0,7 C0,7.37333333 0.292307692,7.66888889 0.661538462,7.66888889 L8.2,7.66888889 C8.47692308,8.43111111 9.18461538,8.97555556 10.0307692,8.97555556 C10.8769231,8.97555556 11.5846154,8.43111111 11.8615385,7.66888889 L13.2,7.66888889 C13.5692308,7.66888889 13.8615385,7.37333333 13.8615385,7 C13.8461538,6.62666667 13.5538462,6.33111111 13.1846154,6.33111111 Z" id="Path"></path>
                        <path d="M13.1846154,11.3711111 L5.52307692,11.3711111 C5.24615385,10.6088889 4.53846154,10.0644444 3.69230769,10.0644444 C2.84615385,10.0644444 2.13846154,10.6088889 1.86153846,11.3711111 L0.661538462,11.3711111 C0.292307692,11.3711111 0,11.6666667 0,12.0244444 C0,12.3977778 0.292307692,12.6933333 0.661538462,12.6933333 L1.87692308,12.6933333 C2.13846154,13.4555556 2.84615385,14 3.69230769,14 C4.53846154,14 5.24615385,13.4555556 5.52307692,12.6933333 L13.1846154,12.6933333 C13.5538462,12.6933333 13.8461538,12.3977778 13.8461538,12.0244444 C13.8461538,11.6666667 13.5538462,11.3711111 13.1846154,11.3711111 Z" id="Path"></path>
                        <path d="M0.661538462,2.62888889 L5.09230769,2.62888889 C5.36923077,3.39111111 6.07692308,3.93555556 6.92307692,3.93555556 C7.76923077,3.93555556 8.47692308,3.39111111 8.75384615,2.62888889 L13.1846154,2.62888889 C13.5538462,2.62888889 13.8461538,2.33333333 13.8461538,1.96 C13.8461538,1.58666667 13.5538462,1.29111111 13.1846154,1.29111111 L8.75384615,1.29111111 C8.47692308,0.544444444 7.76923077,0 6.92307692,0 C6.07692308,0 5.36923077,0.544444444 5.09230769,1.30666667 L0.661538462,1.30666667 C0.292307692,1.30666667 8.8817842e-16,1.60222222 8.8817842e-16,1.97555556 C7.51535586e-16,2.33333333 0.292307692,2.62888889 0.661538462,2.62888889 Z" id="Path"></path>
                    </g>
                </g>
            </g>
        </g>
    </g>
</svg>