<?xml version="1.0" encoding="UTF-8"?>
<svg width="16px" height="14px" viewBox="0 0 16 14" version="1.1" xmlns="http://www.w3.org/2000/svg" xmlns:xlink="http://www.w3.org/1999/xlink">
    <!-- Generator: Sketch 52.6 (67491) - http://www.bohemiancoding.com/sketch -->
    <title>noun_Heart_2079389</title>
    <desc>Created with Sketch.</desc>
    <g id="Page-1" stroke="none" stroke-width="1" fill="none" fill-rule="evenodd">
        <g id="Desktop-HD---Filter-2" transform="translate(-1394.000000, -46.000000)" fill="#000000" fill-rule="nonzero">
            <g id="Menu" transform="translate(40.000000, 40.000000)">
                <g id="noun_Heart_2079389" transform="translate(1354.000000, 6.000000)">
                    <path d="M11.4782609,4.44198454e-16 C10.1340735,0.0033228311 8.86044296,0.577128392 8,1.56705206 C6.78299686,0.162652297 4.7784091,-0.360172054 2.98686376,0.259556454 C1.19531843,0.879284962 0.000970164676,2.50868017 0,4.33439932 C0,9.00221397 7.30434783,13.6700286 7.65217391,13.8900827 C7.88433565,14.0366391 8.18522957,14.0366391 8.4173913,13.8900827 C8.69565217,13.6700286 16,9.00221397 16,4.33439932 C15.9961693,1.94209932 13.97396,0.00367199421 11.4782609,4.44198454e-16 Z M8,12.5230799 C5.84347826,11.0627207 1.39130435,7.39515207 1.39130435,4.33439932 C1.39348138,2.92476888 2.41894714,1.70662339 3.85585157,1.40677636 C5.29275601,1.10692934 6.75368071,1.80622559 7.36695652,3.08742598 C7.47996736,3.32519045 7.72742743,3.47778315 8,3.47778315 C8.27257257,3.47778315 8.52003264,3.32519045 8.63304348,3.08742598 C9.24631929,1.80622559 10.707244,1.10692934 12.1441484,1.40677636 C13.5810529,1.70662339 14.6065186,2.92476888 14.6086957,4.33439932 C14.6086957,7.72189909 9.46086957,11.5161656 8,12.5230799 Z" id="Shape"></path>
                </g>
            </g>
        </g>
    </g>
</svg>