<?xml version="1.0" encoding="UTF-8"?>
<svg width="41px" height="41px" viewBox="0 0 41 41" version="1.1" xmlns="http://www.w3.org/2000/svg" xmlns:xlink="http://www.w3.org/1999/xlink">
    <!-- Generator: Sketch 52.5 (67469) - http://www.bohemiancoding.com/sketch -->
    <title>Group 5</title>
    <desc>Created with Sketch.</desc>
    <g id="Page-1" stroke="none" stroke-width="1" fill="none" fill-rule="evenodd">
        <g id="Desktop-HD---List-Your-Space-Banner-+-Footer-2" transform="translate(-1281.000000, -712.000000)" fill-rule="nonzero">
            <g id="Group-5" transform="translate(1282.000000, 713.000000)">
                <g id="g692" transform="translate(19.816189, 19.736532) scale(-1, 1) rotate(-180.000000) translate(-19.816189, -19.736532) translate(0.316189, 0.236532)" stroke="#000000">
                    <path d="M19.5394867,0.052307691 C8.80615362,0.052307691 0.105641023,8.75384592 0.105641023,19.487179 C0.105641023,30.2205121 8.80615362,38.9220503 19.5394867,38.9220503 C30.2738454,38.9220503 38.974358,30.2205121 38.974358,19.487179 C38.974358,8.75384592 30.2738454,0.052307691 19.5394867,0.052307691 Z" id="path694"></path>
                </g>
                <g id="g696" transform="translate(20.312394, 19.603198) scale(-1, 1) rotate(-180.000000) translate(-20.312394, -19.603198) translate(14.812394, 8.603198)" fill="#000000">
                    <path d="M2.30769223,0 L6.67897417,0 L6.67897417,10.9466664 L9.72820485,10.9466664 L10.0533331,14.6112817 L6.67897417,14.6112817 L6.67897417,16.6984612 C6.67897417,17.5630765 6.8523075,17.9046149 7.68717931,17.9046149 L10.0533331,17.9046149 L10.0533331,21.7087174 L7.02666646,21.7087174 C3.77435886,21.7087174 2.30769223,20.2758969 2.30769223,17.5333329 L2.30769223,14.6112817 L0.0328204923,14.6112817 L0.0328204923,10.9005125 L2.30769223,10.9005125 L2.30769223,0 Z" id="path698"></path>
                </g>
            </g>
        </g>
    </g>
</svg>