<?xml version="1.0" encoding="UTF-8"?>
<svg width="41px" height="41px" viewBox="0 0 41 41" version="1.1" xmlns="http://www.w3.org/2000/svg" xmlns:xlink="http://www.w3.org/1999/xlink">
    <!-- Generator: Sketch 52.5 (67469) - http://www.bohemiancoding.com/sketch -->
    <title>Group 7</title>
    <desc>Created with Sketch.</desc>
    <g id="Page-1" stroke="none" stroke-width="1" fill="none" fill-rule="evenodd">
        <g id="Desktop-HD---List-Your-Space-Banner-+-Footer-2" transform="translate(-1169.000000, -712.000000)" fill-rule="nonzero">
            <g id="Group-7" transform="translate(1170.000000, 713.000000)">
                <g id="g714" transform="translate(19.712096, 19.736532) scale(-1, 1) rotate(-180.000000) translate(-19.712096, -19.736532) translate(0.212096, 0.236532)" stroke="#000000">
                    <path d="M38.974358,19.487179 C38.974358,8.75384592 30.2738454,0.052307691 19.5394867,0.052307691 C8.80615362,0.052307691 0.105641023,8.75384592 0.105641023,19.487179 C0.105641023,30.2205121 8.80615362,38.9220503 19.5394867,38.9220503 C30.2738454,38.9220503 38.974358,30.2205121 38.974358,19.487179" id="path716"></path>
                </g>
                <g id="g718" transform="translate(20.186045, 20.065865) scale(-1, 1) rotate(-180.000000) translate(-20.186045, -20.065865) translate(10.186045, 10.065865)" fill="#000000">
                    <path d="M17.435897,8.205128 C17.4194868,7.56512802 17.4051278,6.92410239 17.3743585,6.28410241 C17.3497432,5.75589729 17.2646149,5.23692295 17.0799995,4.73641014 C16.8041022,3.98871785 16.3169227,3.42153838 15.6215381,3.03589736 C15.2399996,2.82461532 14.8256407,2.70358968 14.3969227,2.62769224 C13.984615,2.55487173 13.5682048,2.53128198 13.1497432,2.51897429 C12.6994868,2.50461532 12.2482048,2.49025635 11.7979484,2.4841025 C11.242051,2.47692302 10.6851279,2.47794865 10.1292305,2.47692302 C9.59487154,2.47589738 9.06051262,2.47589738 8.525128,2.47692302 C8.17641008,2.47692302 7.82666646,2.47282045 7.47692289,2.48102558 C6.83999983,2.49641019 6.20307677,2.51179481 5.56615371,2.54256404 C5.03384603,2.56615378 4.50974348,2.65025635 4.00923067,2.84102557 C3.06358967,3.20102556 2.42666661,3.86256401 2.091282,4.81538449 C1.97333328,5.1507691 1.90256405,5.49743576 1.86153842,5.85128191 C1.80512816,6.34358958 1.78871791,6.83897418 1.78051278,7.33538443 C1.7661538,8.32923054 1.7610256,9.32307669 1.75076918,10.3169228 L1.7610256,10.3169228 C1.7610256,10.9733331 1.75282047,11.6287177 1.76307688,12.2851279 C1.77333329,12.9784612 1.79384611,13.6728202 1.82461534,14.3651278 C1.85025636,14.904615 1.93846149,15.4338458 2.13538456,15.9405124 C2.48615378,16.8369227 3.11282044,17.4543585 4.01333323,17.7948714 C4.37846143,17.9333329 4.75589732,18.0205124 5.14358962,18.0543585 C5.55384602,18.0892303 5.96512805,18.1199995 6.37846138,18.1282047 C7.33948699,18.1456405 8.30256392,18.1507688 9.26461515,18.1569226 C9.87897408,18.1610252 10.4923075,18.1589739 11.107692,18.1569226 C11.547692,18.155897 11.987692,18.155897 12.4256407,18.141538 C12.9097432,18.127179 13.3938458,18.1087175 13.8758971,18.0738457 C14.4410253,18.0328201 14.9897432,17.9138457 15.5005125,17.6605124 C16.2287175,17.2994868 16.744615,16.7384612 17.0471791,15.9825637 C17.2041022,15.5887175 17.3005124,15.1805125 17.3374355,14.758974 C17.3723072,14.3435894 17.3938457,13.9261535 17.4123072,13.5097432 C17.4266662,13.1784612 17.4317945,12.8471792 17.4328201,12.5158972 C17.4369226,11.3815382 17.4389739,10.2482048 17.4399995,9.11384592 C17.4410252,8.81128185 17.4441022,8.50769208 17.435897,8.205128 M19.1620508,12.2994868 C19.1446149,13.0010253 19.127179,13.7025638 19.1005123,14.4041022 C19.0851277,14.8328202 19.0317944,15.2564098 18.9384611,15.6748714 C18.7528201,16.5107688 18.4287175,17.2789739 17.8738457,17.941538 C17.2041022,18.7405124 16.3641022,19.2707688 15.3630765,19.5548713 C14.9230765,19.6799995 14.4728202,19.7620508 14.0153842,19.7948713 C13.6266663,19.821538 13.2379484,19.8389738 12.8492305,19.8543585 C12.5384612,19.8676918 5.96923062,19.8441021 5.40410243,19.8123072 C4.58256398,19.7661534 3.78256401,19.6092303 3.03384608,19.2564098 C1.81948713,18.6830765 0.977435869,17.7620508 0.503589731,16.5056406 C0.322051274,16.0256406 0.212307687,15.5292304 0.150769227,15.0205125 C0.09230769,14.5384612 0.076923075,14.0553842 0.062564101,13.5712817 C0.05128205,13.2564099 0.047179486,12.9425638 0.039999999,12.627692 C0.039999999,12.6153843 0.034871794,12.6030766 0.031794871,12.5897433 L0.031794871,8.04410238 C0.035897435,7.97128185 0.039999999,7.89846131 0.042051281,7.82564085 C0.062564101,7.25743572 0.072820511,6.68820496 0.105641023,6.11999985 C0.145641022,5.38358961 0.281025634,4.66461527 0.562051268,3.9774358 C1.0030769,2.89641018 1.74051278,2.07692302 2.75999993,1.51487175 C3.28307684,1.22564099 3.84923067,1.04717946 4.43692297,0.939487154 C4.91384603,0.850256392 5.39692294,0.812307669 5.88102549,0.7979487 C6.3815383,0.783589723 11.3774356,0.747692289 11.7138458,0.755897417 C12.3723074,0.771282031 13.0307689,0.789743569 13.6892305,0.815384592 C14.1169227,0.832820492 14.5415381,0.886153823 14.9599996,0.979487154 C15.7035894,1.14358972 16.4010252,1.41743586 17.0143585,1.87897432 C17.8369226,2.49743584 18.4184611,3.29128197 18.7466662,4.26974348 C18.8953842,4.70974347 18.99282,5.16102552 19.0482046,5.62051268 C19.1087175,6.11179472 19.1241021,6.60615368 19.1384611,7.099487 C19.1507688,7.54769212 19.1599995,7.99487162 19.1620508,8.44205108 C19.1661534,9.47794846 19.1661534,10.5138459 19.1661534,11.5497433 C19.167179,11.7989741 19.1682046,12.0492305 19.1620508,12.2994868" id="path720"></path>
                </g>
                <g id="g722" transform="translate(20.142147, 19.486686) scale(-1, 1) rotate(-180.000000) translate(-20.142147, -19.486686) translate(14.642147, 13.986686)" fill="#000000">
                    <path d="M5.128205,2.051282 C3.35487171,2.05641021 1.9261538,3.51589735 1.95589738,5.29435884 C1.98564098,7.02461521 3.40102555,8.42871777 5.1456409,8.42564085 C6.90974342,8.42564085 8.33128185,6.99589726 8.33128185,5.22461525 C8.33025623,3.47282042 6.89538445,2.04615379 5.128205,2.051282 M5.1456409,10.150769 C2.46666661,10.1589741 0.281025634,8.00102546 0.229743584,5.33743576 C0.177435893,2.58871788 2.37948712,0.349743581 5.09333321,0.324102556 C7.82564085,0.298461531 10.0358972,2.49743584 10.0574356,5.19692295 C10.0779485,7.95179469 7.84205108,10.1589741 5.1456409,10.150769" id="path724"></path>
                </g>
                <g id="g726" transform="translate(25.196813, 14.698480) scale(-1, 1) rotate(-180.000000) translate(-25.196813, -14.698480) translate(23.196813, 12.698480)" fill="#000000">
                    <path d="M3.076923,2.051282 C3.076923,1.28205125 2.46666661,0.681025624 1.69743585,0.671794855 L1.68820508,0.671794855 C1.32205125,0.671794855 0.984615362,0.812307669 0.721025623,1.07487177 C0.458461527,1.33743586 0.308717941,1.68512816 0.308717941,2.06051277 C0.308717941,2.42666661 0.458461527,2.77435891 0.721025623,3.036923 C0.984615362,3.2994871 1.34153843,3.43076915 1.69743585,3.43999992 C2.45743584,3.43999992 3.076923,2.81128198 3.076923,2.051282" id="path728"></path>
                </g>
            </g>
        </g>
    </g>
</svg>