<?xml version="1.0" encoding="UTF-8"?>
<svg width="40px" height="41px" viewBox="0 0 40 41" version="1.1" xmlns="http://www.w3.org/2000/svg" xmlns:xlink="http://www.w3.org/1999/xlink">
    <!-- Generator: Sketch 52.5 (67469) - http://www.bohemiancoding.com/sketch -->
    <title>Group 3</title>
    <desc>Created with Sketch.</desc>
    <g id="Page-1" stroke="none" stroke-width="1" fill="none" fill-rule="evenodd">
        <g id="Desktop-HD---List-Your-Space-Banner-+-Footer-2" transform="translate(-1337.000000, -712.000000)" fill-rule="nonzero">
            <g id="Group-3" transform="translate(1337.000000, 713.000000)">
                <g id="g700" transform="translate(19.920385, 19.736532) scale(-1, 1) rotate(-180.000000) translate(-19.920385, -19.736532) translate(0.420385, 0.236532)" stroke="#000000">
                    <path d="M38.974358,19.487179 C38.974358,8.75384592 30.2738454,0.052307691 19.5394867,0.052307691 C8.80615362,0.052307691 0.105641023,8.75384592 0.105641023,19.487179 C0.105641023,30.2205121 8.80615362,38.9220503 19.5394867,38.9220503 C30.2738454,38.9220503 38.974358,30.2205121 38.974358,19.487179" id="path702"></path>
                </g>
                <polygon id="path704" fill="#000000" transform="translate(13.793821, 22.750789) scale(-1, 1) rotate(-180.000000) translate(-13.793821, -22.750789) " points="11.9353594 16.747712 15.6522824 16.747712 15.6522824 28.7538655 11.9353594 28.7538655"></polygon>
                <g id="g706" transform="translate(13.969001, 12.675506) scale(-1, 1) rotate(-180.000000) translate(-13.969001, -12.675506) translate(11.469001, 10.175506)" fill="#000000">
                    <path d="M2.30769223,0 C3.52205118,0 4.50564089,0.992820485 4.50564089,2.2164102 C4.50564089,3.43999992 3.52205118,4.43076912 2.30769223,4.43076912 C1.09333328,4.43076912 0.109743569,3.43999992 0.109743569,2.2164102 C0.109743569,0.992820485 1.09333328,0 2.30769223,0" id="path708"></path>
                </g>
                <g id="g710" transform="translate(23.990642, 22.361455) scale(-1, 1) rotate(-180.000000) translate(-23.990642, -22.361455) translate(17.490642, 15.861455)" fill="#000000">
                    <path d="M4.102564,6.41025623 C4.102564,8.09846131 4.87999988,9.10358946 6.36717933,9.10358946 C7.73333315,9.10358946 8.390769,8.13846131 8.390769,6.41025623 L8.390769,0.107692285 L12.0892305,0.107692285 L12.0892305,7.70974338 C12.0892305,10.9251279 10.2666664,12.4799997 7.71999977,12.4799997 C5.17435885,12.4799997 4.102564,10.49641 4.102564,10.49641 L4.102564,12.1138458 L0.537435884,12.1138458 L0.537435884,0.107692285 L4.102564,0.107692285 L4.102564,6.41025623 Z" id="path712"></path>
                </g>
            </g>
        </g>
    </g>
</svg>