<svg width="14" height="14" viewBox="0 0 14 14" xmlns="http://www.w3.org/2000/svg"><title>noun_filter fill_582850</title><path d="M13.185 6.331h-1.339c-.277-.762-.984-1.307-1.83-1.307-.847 0-1.554.545-1.831 1.307H.646A.657.657 0 0 0 0 7a.66.66 0 0 0 .662.669H8.2c.277.762.985 1.307 1.83 1.307.847 0 1.555-.545 1.832-1.307H13.2A.66.66 0 0 0 13.862 7a.683.683 0 0 0-.677-.669zm0 5.04H5.523c-.277-.762-.985-1.307-1.83-1.307-.847 0-1.555.545-1.831 1.307h-1.2a.66.66 0 1 0 0 1.322h1.215c.261.763.97 1.307 1.815 1.307.846 0 1.554-.544 1.831-1.307h7.662a.66.66 0 1 0 0-1.322zM.662 2.629h4.43c.277.762.985 1.307 1.831 1.307s1.554-.545 1.83-1.307h4.432a.66.66 0 0 0 .661-.669.66.66 0 0 0-.661-.669H8.754A1.959 1.959 0 0 0 6.924 0c-.847 0-1.555.544-1.832 1.307H.662a.66.66 0 1 0 0 1.322z" fill-rule="evenodd"/></svg>