<svg width="16" height="14" viewBox="0 0 16 14" xmlns="http://www.w3.org/2000/svg"><title>noun_Heart_2079389</title><path d="M11.478 0A4.623 4.623 0 0 0 8 1.567C6.783.163 4.778-.36 2.987.26 1.195.88 0 2.509 0 4.334c0 4.668 7.304 9.336 7.652 9.556a.72.72 0 0 0 .765 0C8.696 13.67 16 9.002 16 4.334 15.996 1.942 13.974.004 11.478 0zM8 12.523c-2.157-1.46-6.609-5.128-6.609-8.189.002-1.41 1.028-2.627 2.465-2.927 1.437-.3 2.898.4 3.511 1.68.113.238.36.39.633.39s.52-.152.633-.39c.613-1.28 2.074-1.98 3.511-1.68 1.437.3 2.463 1.518 2.465 2.927 0 3.388-5.148 7.182-6.609 8.19z"/></svg>