<svg width="41" height="41" viewBox="0 0 41 41" xmlns="http://www.w3.org/2000/svg"><title>Group 6</title><g fill="none"><path d="M39.623 20.75c0 10.733-8.7 19.434-19.435 19.434C9.455 40.184.754 31.483.754 20.75s8.7-19.435 19.434-19.435c10.735 0 19.435 8.702 19.435 19.435" stroke="#000"/><path d="M10.277 27.392a12.275 12.275 0 0 0 6.648 1.948c8.055 0 12.604-6.802 12.33-12.903a8.782 8.782 0 0 0 2.165-2.245 8.654 8.654 0 0 1-2.49.682 4.342 4.342 0 0 0 1.905-2.4 8.7 8.7 0 0 1-2.754 1.054 4.333 4.333 0 0 0-3.167-1.37c-2.799 0-4.856 2.613-4.225 5.326a12.308 12.308 0 0 1-8.94-4.532 4.341 4.341 0 0 0 1.342 5.791 4.329 4.329 0 0 1-1.965-.542c-.047 2.01 1.394 3.889 3.48 4.307a4.351 4.351 0 0 1-1.959.075 4.34 4.34 0 0 0 4.052 3.013 8.718 8.718 0 0 1-6.422 1.796" fill="#000"/></g></svg>