<svg width="40" height="41" viewBox="0 0 40 41" xmlns="http://www.w3.org/2000/svg"><title>Group 3</title><g fill="none"><path d="M39.395 20.75c0 10.733-8.7 19.434-19.435 19.434C9.227 40.184.526 31.483.526 20.75S9.226 1.315 19.96 1.315c10.734 0 19.435 8.702 19.435 19.435" stroke="#000"/><path fill="#000" d="M11.935 29.754h3.717V17.748h-3.717zm1.842-13.578a2.207 2.207 0 0 0 2.198-2.217 2.205 2.205 0 0 0-2.198-2.214c-1.215 0-2.198.99-2.198 2.214s.983 2.217 2.198 2.217m7.816 7.275c0-1.688.778-2.693 2.265-2.693 1.366 0 2.023.965 2.023 2.693v6.303h3.699v-7.602c0-3.216-1.823-4.77-4.37-4.77-2.545 0-3.617 1.983-3.617 1.983v-1.617h-3.565v12.006h3.565V23.45z"/></g></svg>