<svg width="41" height="41" viewBox="0 0 41 41" xmlns="http://www.w3.org/2000/svg"><title>Group 7</title><g fill="none"><path d="M40.186 20.75c0 10.733-8.7 19.434-19.434 19.434-10.734 0-19.434-8.701-19.434-19.435 0-10.733 8.7-19.435 19.434-19.435 10.734 0 19.434 8.702 19.434 19.435" stroke="#000"/><path d="M28.622 22.86c-.016.64-.03 1.282-.062 1.922a5.126 5.126 0 0 1-.294 1.547 3.123 3.123 0 0 1-1.458 1.701 3.901 3.901 0 0 1-1.225.408 8.601 8.601 0 0 1-1.247.109c-.45.014-.902.029-1.352.035-.556.007-1.113.006-1.669.007h-1.604c-.349 0-.698.004-1.048-.004a79.232 79.232 0 0 1-1.91-.062 4.954 4.954 0 0 1-1.558-.298c-.945-.36-1.582-1.022-1.918-1.975a4.76 4.76 0 0 1-.23-1.035 15.237 15.237 0 0 1-.08-1.485c-.015-.993-.02-1.987-.03-2.981h.01c0-.656-.008-1.312.002-1.968.01-.694.03-1.388.062-2.08a4.97 4.97 0 0 1 .31-1.576c.351-.896.978-1.513 1.878-1.854a4.21 4.21 0 0 1 1.13-.26c.41-.034.822-.065 1.236-.073.96-.018 1.924-.023 2.886-.03.614-.003 1.227-.001 1.843 0 .44.002.88.002 1.318.016.484.015.968.033 1.45.068.565.041 1.114.16 1.625.413a3.099 3.099 0 0 1 1.546 1.678c.157.394.254.802.29 1.224.035.415.057.833.075 1.25.015.33.02.662.02.993.005 1.134.007 2.268.008 3.402.001.303.004.606-.004.909m1.726-4.095c-.017-.701-.035-1.403-.061-2.104a6.973 6.973 0 0 0-.162-1.271c-.186-.836-.51-1.604-1.065-2.267a4.964 4.964 0 0 0-2.51-1.613 6.667 6.667 0 0 0-1.349-.24 40.339 40.339 0 0 0-1.166-.06c-.31-.013-6.88.01-7.445.043-.821.046-1.621.203-2.37.555-1.214.574-2.057 1.495-2.53 2.751-.182.48-.292.977-.353 1.485-.059.482-.074.965-.088 1.45-.012.314-.016.628-.023.943 0 .012-.005.025-.008.038v4.546c.004.073.008.145.01.218.02.568.03 1.138.064 1.706.04.736.175 1.455.456 2.142a4.819 4.819 0 0 0 2.198 2.463 5.44 5.44 0 0 0 1.677.575c.477.09.96.128 1.444.142.5.014 5.496.05 5.833.042.658-.015 1.317-.034 1.975-.06.428-.017.853-.07 1.271-.164.744-.164 1.441-.438 2.054-.9a4.866 4.866 0 0 0 1.733-2.39c.148-.44.246-.891.301-1.35.06-.492.076-.986.09-1.48.013-.448.022-.895.024-1.342.004-1.036.004-2.072.004-3.108.001-.25.002-.5-.004-.75" fill="#000"/><path d="M20.77 23.935a3.187 3.187 0 0 1 .018-6.374 3.188 3.188 0 1 1-.018 6.374m.018-8.1a4.913 4.913 0 0 0-4.916 4.814 4.918 4.918 0 0 0 4.863 5.014A4.917 4.917 0 0 0 25.7 20.79c.02-2.755-2.216-4.962-4.912-4.954m6.486-.189c0 .77-.61 1.37-1.38 1.38h-.009c-.366 0-.704-.14-.967-.403a1.385 1.385 0 0 1-.412-.986c0-.366.15-.714.412-.976.263-.263.62-.394.976-.404.76 0 1.38.63 1.38 1.39" fill="#000"/></g></svg>